<?xml version="1.0" encoding="UTF-8"?>
<svg width="13" height="13" viewBox="0 0 13 13" fill="none" xmlns="http://www.w3.org/2000/svg">
  <path
    d="M5.57483 11.7561C5.41256 11.5951 5.32129 11.376 5.32129 11.1474C5.32129 10.9189 5.41256 10.6998 5.57483 10.5388L9.9634 6.15844C10.042 6.07058 10.042 5.9377 9.9634 5.84984L5.57483 1.46945C5.41256 1.3085 5.32129 1.08939 5.32129 0.860827C5.32129 0.632261 5.41256 0.413159 5.57483 0.252202C5.90915 -0.0801612 6.44908 -0.0801612 6.7834 0.252202L11.6263 5.09549C11.8691 5.33545 12.0059 5.66268 12.0059 6.00414C12.0059 6.34559 11.8691 6.67282 11.6263 6.91279L6.7834 11.7561C6.44908 12.0884 5.90915 12.0884 5.57483 11.7561Z"
    fill="#333333" />
  <path
    d="M0.252079 10.5387L4.64065 6.15833C4.68255 6.11794 4.70623 6.06224 4.70623 6.00403C4.70623 5.94583 4.68255 5.89013 4.64065 5.84974L0.252079 1.46935C-0.0840262 1.13322 -0.0840262 0.588235 0.252079 0.252101C0.588183 -0.0840336 1.13312 -0.0840336 1.46922 0.252101L6.30351 5.09538C6.5464 5.33535 6.6831 5.66258 6.6831 6.00403C6.6831 6.34549 6.5464 6.67272 6.30351 6.91269L1.46922 11.756C1.13312 12.0921 0.588183 12.0921 0.252079 11.756C-0.0840262 11.4198 -0.0840262 10.8749 0.252079 10.5387Z"
    fill="#333333" />
</svg>
    